<svg xmlns="http://www.w3.org/2000/svg" xmlns:xlink="http://www.w3.org/1999/xlink" viewBox="0 0 200 48.44">
  <defs>
    <linearGradient id="e0689529-f3d3-4450-aef8-562ccba90cfc" x1="132.59" y1="9.9" x2="132.59" y2="34.45" gradientUnits="userSpaceOnUse">
      <stop offset="0" stop-color="#f48f41"/>
      <stop offset="1" stop-color="#f05e2d"/>
    </linearGradient>
    <linearGradient id="e2570e24-dbda-40bf-812a-27cea08ee853" x1="191.09" y1="9.9" x2="191.09" y2="34.45" xlink:href="#e0689529-f3d3-4450-aef8-562ccba90cfc"/>
    <linearGradient id="bc57d2f0-8631-4f2d-bd50-845534bdf7e7" x1="170.48" y1="9.9" x2="170.48" y2="34.45" xlink:href="#e0689529-f3d3-4450-aef8-562ccba90cfc"/>
    <linearGradient id="a72168a2-aef0-4511-975a-77de88ce09db" x1="151.78" y1="9.9" x2="151.78" y2="34.45" xlink:href="#e0689529-f3d3-4450-aef8-562ccba90cfc"/>
    <linearGradient id="e2c6e16b-a74b-4b22-94d0-73b67f0502fd" x1="20.16" y1="0.54" x2="20.16" y2="44.22" xlink:href="#e0689529-f3d3-4450-aef8-562ccba90cfc"/>
  </defs>
  <g id="e08555b1-76fd-4768-804c-732c4bbbe36e" data-name="Слой 2">
    <g id="ec7a364e-bc0b-4c11-917f-afa9f032f07c" data-name="Слой 1">
      <g>
        <g>
          <path d="M43.84,47.62A3.21,3.21,0,0,1,43,45.27v-4h1.31v3.92c0,1.38.59,2.07,1.79,2.07s1.78-.69,1.78-2.07V41.3h1.28v4a3.21,3.21,0,0,1-.81,2.35,3.05,3.05,0,0,1-2.26.82A3.1,3.1,0,0,1,43.84,47.62Z" fill="#3b3c46"/>
          <path d="M67.94,41.3v7H66.86L63,43.57v4.77h-1.3v-7h1.08l3.88,4.76V41.3Z" fill="#3b3c46"/>
          <path d="M80.49,41.3h1.3v7h-1.3Z" fill="#3b3c46"/>
          <path d="M100.74,41.3l-3.07,7H96.39l-3.08-7h1.42l2.34,5.43,2.36-5.43Z" fill="#3b3c46"/>
          <path d="M117.42,47.24v1.1h-5.28v-7h5.14v1.09h-3.83v1.83h3.4V45.3h-3.4v1.94Z" fill="#3b3c46"/>
          <path d="M134.14,48.34l-1.43-2.07h-1.86v2.06h-1.31v-7h2.89a3.94,3.94,0,0,1,1.6.3,2.34,2.34,0,0,1,1,.86,2.44,2.44,0,0,1,.36,1.34,2.37,2.37,0,0,1-.39,1.37,2.19,2.19,0,0,1-1.11.85l1.62,2.32Zm-.47-5.58a2,2,0,0,0-1.3-.36h-1.52v2.81h1.52a2,2,0,0,0,1.3-.37,1.25,1.25,0,0,0,.44-1A1.26,1.26,0,0,0,133.67,42.76Z" fill="#3b3c46"/>
          <path d="M148.16,48.2a3.19,3.19,0,0,1-1.21-.61l.46-1a3.65,3.65,0,0,0,1.06.55,3.72,3.72,0,0,0,1.26.22,2.17,2.17,0,0,0,1.17-.25.77.77,0,0,0,.39-.67.61.61,0,0,0-.22-.49,1.42,1.42,0,0,0-.54-.31c-.23-.07-.53-.16-.91-.25a12.25,12.25,0,0,1-1.3-.38,2.24,2.24,0,0,1-.86-.6,1.6,1.6,0,0,1-.35-1.1,1.88,1.88,0,0,1,.31-1.06,2.13,2.13,0,0,1,1-.76,3.82,3.82,0,0,1,1.56-.28,5,5,0,0,1,1.27.16,3.52,3.52,0,0,1,1.08.46l-.42,1a4.48,4.48,0,0,0-1-.41,3.8,3.8,0,0,0-1-.14,2.08,2.08,0,0,0-1.15.26.83.83,0,0,0-.38.7.61.61,0,0,0,.22.49,1.45,1.45,0,0,0,.55.3,8.63,8.63,0,0,0,.9.25,9.44,9.44,0,0,1,1.29.38,2.24,2.24,0,0,1,.86.6,1.57,1.57,0,0,1,.36,1.08,1.86,1.86,0,0,1-.32,1.06,2.05,2.05,0,0,1-1,.75,3.86,3.86,0,0,1-1.57.29A5.15,5.15,0,0,1,148.16,48.2Z" fill="#3b3c46"/>
          <path d="M164.53,41.3h1.31v7h-1.31Z" fill="#3b3c46"/>
          <path d="M179.83,42.4h-2.34V41.3h6v1.1h-2.34v5.94h-1.3Z" fill="#3b3c46"/>
          <path d="M197.24,45.85v2.49h-1.3V45.87l-2.77-4.57h1.4l2.06,3.43,2.08-3.43H200Z" fill="#3b3c46"/>
        </g>
        <g>
          <path d="M64.71,10.26l-7.35,23.8h6.89L65,31.24h7.19l.75,2.82H79.8l-7.35-23.8ZM67.2,24.57l1.38-5.48,1.34,5.48Z" fill="#3b3c46"/>
          <path d="M87.78,22.05l-3-11.79H77.22l6.36,23.57H92l6.37-23.57H90.8Z" fill="#3b3c46"/>
          <path d="M103,10.26,95.6,34.06h6.89l.72-2.82h7.19l.75,2.82H118l-7.35-23.8Zm2.49,14.31,1.38-5.48,1.35,5.48Z" fill="#3b3c46"/>
          <path d="M48.19,10.26V16.4h2.07v7.93A2.66,2.66,0,0,1,50,25.42a3.32,3.32,0,0,1-.61.9,2.73,2.73,0,0,1-.9.62,16.67,16.67,0,0,1-2.76.23H44.18V29A12.05,12.05,0,0,1,43,34.06h4.63a9.17,9.17,0,0,0,3.7-.75,10.08,10.08,0,0,0,3-2,9.63,9.63,0,0,0,2-3,9.17,9.17,0,0,0,.76-3.7V10.26Z" fill="#3b3c46"/>
          <path d="M143.89,33a11.25,11.25,0,0,1-2.43-3.52,10,10,0,0,1-.5-1.39,13.1,13.1,0,0,1-1.3.85,4.93,4.93,0,0,1-1.06.37,4.84,4.84,0,0,1-1.12.14,2.32,2.32,0,0,1-1-.2,5.29,5.29,0,0,1-1.45-.87q-.54-.48-.9-.87a9.5,9.5,0,0,0,2.61-2.71,8.91,8.91,0,0,0,1.34-3.66,9,9,0,0,0-.18-3.74,9.74,9.74,0,0,0-1.54-3.29,9.61,9.61,0,0,0-6.18-3.8,11.33,11.33,0,0,0-1.43-.07h-8.29v23.8h6.89v-5c.35.37.71.79,1.08,1.25s.78.93,1.23,1.41a18.46,18.46,0,0,0,1.55,1.46,15.25,15.25,0,0,0,2.07,1.43,6.93,6.93,0,0,0,1.93.72,9.9,9.9,0,0,0,2.35.26c.61,0,1.27,0,2-.09a13.23,13.23,0,0,0,2-.35,10.72,10.72,0,0,0,1.86-.64,5,5,0,0,0,1.25-.79C144.42,33.5,144.15,33.27,143.89,33ZM130.56,21.34A2.11,2.11,0,0,1,129,22h-1.6V17.45H129a2.24,2.24,0,0,1,2.24,2.27A2.23,2.23,0,0,1,130.56,21.34Z" fill="url(#e0689529-f3d3-4450-aef8-562ccba90cfc)"/>
          <path d="M193.11,10.26v8.4h-4v-8.4h-6.89v23.8h6.89v-8.5h4v8.5H200V10.26Z" fill="url(#e2570e24-dbda-40bf-812a-27cea08ee853)"/>
          <path d="M179.67,23.85a6.92,6.92,0,0,0-1.14-1.92,8,8,0,0,0-1.7-1.53,8.45,8.45,0,0,0-2.17-1l-3.74-1.22a2,2,0,0,1-.61-.62.57.57,0,0,1,.12-.76,2.35,2.35,0,0,1,1.07-.46,5.26,5.26,0,0,1,1.26,0,23.54,23.54,0,0,1,2.53.53,21,21,0,0,1,2.42.78c.09-1.48.15-2.59.17-3.33s0-1.28,0-1.64v-.8A6.51,6.51,0,0,1,178,11a16.32,16.32,0,0,0-3.5-.84A22.21,22.21,0,0,0,171,10a11,11,0,0,0-2.82.39,7.38,7.38,0,0,0-2.31,1,6.38,6.38,0,0,0-1.61,1.48,5.74,5.74,0,0,0-.94,1.82,7.34,7.34,0,0,0-.29,2c0,.4-.49,3.57,3.71,6.32a25.52,25.52,0,0,0,4.12,2,3.91,3.91,0,0,1,.71.35,2,2,0,0,1,.58.53,1.15,1.15,0,0,1,.23.7,1,1,0,0,1-.43.77,1.82,1.82,0,0,1-.88.25,15.38,15.38,0,0,1-2.84-.59c-1.21-.43-4.09-1.71-5.23-2.21v.27a10.83,10.83,0,0,1-.91,4.37,11.85,11.85,0,0,1-1.22,2.11,21.09,21.09,0,0,0,10.63,2.6,9.39,9.39,0,0,0,6.42-2.56,7,7,0,0,0,1.6-2.43,7.88,7.88,0,0,0,.54-3.14A6.17,6.17,0,0,0,179.67,23.85Z" fill="url(#bc57d2f0-8631-4f2d-bd50-845534bdf7e7)"/>
          <path d="M153.9,24.8a1.89,1.89,0,0,1-.64,1.43,2.1,2.1,0,0,1-1.49.61,2,2,0,0,1-1.46-.61,1.89,1.89,0,0,1-.64-1.43V10.19h-6.9V25.13a8.5,8.5,0,0,0,.73,3.47,9,9,0,0,0,1.95,2.82,9.42,9.42,0,0,0,2.85,1.9,8.83,8.83,0,0,0,6.94,0,9.27,9.27,0,0,0,2.87-1.9,8.87,8.87,0,0,0,2-2.82,8.49,8.49,0,0,0,.72-3.47V10.19H153.9Z" fill="url(#a72168a2-aef0-4511-975a-77de88ce09db)"/>
        </g>
        <path d="M36.24,36l-12,6.93a8.13,8.13,0,0,1-8.15,0L4.07,36A8.16,8.16,0,0,1,0,29V15.08A8.13,8.13,0,0,1,4.07,8l12-6.94a8.18,8.18,0,0,1,8.15,0L36.24,8a8.13,8.13,0,0,1,4.07,7.05V29A8.16,8.16,0,0,1,36.24,36Z" fill="url(#e2c6e16b-a74b-4b22-94d0-73b67f0502fd)"/>
        <g id="e7aaddc0-a85d-4901-ab14-919449a6d1de" data-name="{">
          <path d="M15,23.93a1.87,1.87,0,0,1,.71.6,2.68,2.68,0,0,1,.41.92,5.07,5.07,0,0,1,.13,1.22v3A8,8,0,0,0,16.59,32a5.5,5.5,0,0,0,1.08,2,7.21,7.21,0,0,0,2,1.62,12.05,12.05,0,0,0,3,1.14l1.06-2.66a2.72,2.72,0,0,1-1.07-.65,3.34,3.34,0,0,1-.67-1,4.86,4.86,0,0,1-.35-1.26,9.75,9.75,0,0,1-.1-1.46v-3a4.86,4.86,0,0,0-.8-2.71A5.29,5.29,0,0,0,18.21,22a5.34,5.34,0,0,0,2.56-1.94,4.87,4.87,0,0,0,.8-2.72V14.3a9.66,9.66,0,0,1,.1-1.46A4.86,4.86,0,0,1,22,11.58a3.34,3.34,0,0,1,.67-1A2.72,2.72,0,0,1,23.76,10L22.7,7.3a12.45,12.45,0,0,0-3,1.14,7.19,7.19,0,0,0-2,1.61,5.5,5.5,0,0,0-1.08,2,8,8,0,0,0-.32,2.27v3.05a3.84,3.84,0,0,1-.54,2.16,2,2,0,0,1-1.75.8v3.41A2.35,2.35,0,0,1,15,23.93Z" fill="#fff"/>
        </g>
      </g>
    </g>
  </g>
</svg>
